<mxfile host="www.draw.io" modified="2019-11-07T05:26:27.682Z" agent="Mozilla/5.0 (Macintosh; Intel Mac OS X 10_14_6) AppleWebKit/605.1.15 (KHTML, like Gecko) Version/13.0.3 Safari/605.1.15" etag="GQ4qqfnxqM-1OeeF4A5v" version="12.2.2" type="github" pages="1">
  <diagram id="UU16xFGlYekMvn4aixaY" name="Page-1">
    <mxGraphModel dx="2595" dy="819" grid="1" gridSize="10" guides="1" tooltips="1" connect="1" arrows="1" fold="1" page="1" pageScale="1" pageWidth="1169" pageHeight="827" math="0" shadow="0">
      <root>
        <mxCell id="0"/>
        <mxCell id="1" parent="0"/>
        <mxCell id="57tICekwnjl2I0n6BF8x-1" value="D0" style="shape=trapezoid;perimeter=trapezoidPerimeter;whiteSpace=wrap;html=1;direction=west;" parent="1" vertex="1">
          <mxGeometry x="-1040" y="520" width="100" height="60" as="geometry"/>
        </mxCell>
        <mxCell id="57tICekwnjl2I0n6BF8x-2" value="D1" style="shape=trapezoid;perimeter=trapezoidPerimeter;whiteSpace=wrap;html=1;direction=west;" parent="1" vertex="1">
          <mxGeometry x="-920" y="520" width="100" height="60" as="geometry"/>
        </mxCell>
        <mxCell id="57tICekwnjl2I0n6BF8x-3" value="D2" style="shape=trapezoid;perimeter=trapezoidPerimeter;whiteSpace=wrap;html=1;direction=west;" parent="1" vertex="1">
          <mxGeometry x="-800" y="520" width="100" height="60" as="geometry"/>
        </mxCell>
        <mxCell id="57tICekwnjl2I0n6BF8x-4" value="C0" style="shape=trapezoid;perimeter=trapezoidPerimeter;whiteSpace=wrap;html=1;direction=east;" parent="1" vertex="1">
          <mxGeometry x="-1040" y="420" width="100" height="60" as="geometry"/>
        </mxCell>
        <mxCell id="57tICekwnjl2I0n6BF8x-5" value="C1" style="shape=trapezoid;perimeter=trapezoidPerimeter;whiteSpace=wrap;html=1;direction=east;" parent="1" vertex="1">
          <mxGeometry x="-920" y="420" width="100" height="60" as="geometry"/>
        </mxCell>
        <mxCell id="57tICekwnjl2I0n6BF8x-7" value="D3" style="shape=trapezoid;perimeter=trapezoidPerimeter;whiteSpace=wrap;html=1;direction=east;" parent="1" vertex="1">
          <mxGeometry x="-663" y="520" width="100" height="60" as="geometry"/>
        </mxCell>
        <mxCell id="57tICekwnjl2I0n6BF8x-8" value="D4" style="shape=trapezoid;perimeter=trapezoidPerimeter;whiteSpace=wrap;html=1;direction=east;" parent="1" vertex="1">
          <mxGeometry x="-520" y="520" width="100" height="60" as="geometry"/>
        </mxCell>
        <mxCell id="57tICekwnjl2I0n6BF8x-9" value="D5" style="shape=trapezoid;perimeter=trapezoidPerimeter;whiteSpace=wrap;html=1;direction=east;" parent="1" vertex="1">
          <mxGeometry x="-280" y="520" width="100" height="60" as="geometry"/>
        </mxCell>
        <mxCell id="57tICekwnjl2I0n6BF8x-10" value="D6" style="shape=trapezoid;perimeter=trapezoidPerimeter;whiteSpace=wrap;html=1;direction=east;" parent="1" vertex="1">
          <mxGeometry x="-120" y="520" width="100" height="60" as="geometry"/>
        </mxCell>
        <mxCell id="57tICekwnjl2I0n6BF8x-11" value="D7" style="shape=trapezoid;perimeter=trapezoidPerimeter;whiteSpace=wrap;html=1;direction=east;" parent="1" vertex="1">
          <mxGeometry x="40" y="520" width="100" height="60" as="geometry"/>
        </mxCell>
        <mxCell id="57tICekwnjl2I0n6BF8x-12" value="D8" style="shape=trapezoid;perimeter=trapezoidPerimeter;whiteSpace=wrap;html=1;direction=east;" parent="1" vertex="1">
          <mxGeometry x="200" y="520" width="100" height="60" as="geometry"/>
        </mxCell>
        <mxCell id="57tICekwnjl2I0n6BF8x-13" value="D9" style="shape=trapezoid;perimeter=trapezoidPerimeter;whiteSpace=wrap;html=1;direction=east;" parent="1" vertex="1">
          <mxGeometry x="360" y="520" width="100" height="60" as="geometry"/>
        </mxCell>
        <mxCell id="57tICekwnjl2I0n6BF8x-14" value="D10" style="shape=trapezoid;perimeter=trapezoidPerimeter;whiteSpace=wrap;html=1;direction=east;" parent="1" vertex="1">
          <mxGeometry x="520" y="520" width="100" height="60" as="geometry"/>
        </mxCell>
        <mxCell id="57tICekwnjl2I0n6BF8x-15" value="B0" style="shape=trapezoid;perimeter=trapezoidPerimeter;whiteSpace=wrap;html=1;direction=east;" parent="1" vertex="1">
          <mxGeometry x="-1040" y="280" width="100" height="60" as="geometry"/>
        </mxCell>
        <mxCell id="57tICekwnjl2I0n6BF8x-16" value="B1" style="shape=trapezoid;perimeter=trapezoidPerimeter;whiteSpace=wrap;html=1;direction=east;" parent="1" vertex="1">
          <mxGeometry x="-920" y="280" width="100" height="60" as="geometry"/>
        </mxCell>
        <mxCell id="57tICekwnjl2I0n6BF8x-17" value="A1" style="shape=trapezoid;perimeter=trapezoidPerimeter;whiteSpace=wrap;html=1;direction=west;" parent="1" vertex="1">
          <mxGeometry x="-930" y="130" width="100" height="60" as="geometry"/>
        </mxCell>
        <mxCell id="57tICekwnjl2I0n6BF8x-19" value="C2" style="shape=trapezoid;perimeter=trapezoidPerimeter;whiteSpace=wrap;html=1;direction=east;" parent="1" vertex="1">
          <mxGeometry x="-640" y="320" width="100" height="60" as="geometry"/>
        </mxCell>
        <mxCell id="57tICekwnjl2I0n6BF8x-20" value="C3" style="shape=trapezoid;perimeter=trapezoidPerimeter;whiteSpace=wrap;html=1;direction=east;" parent="1" vertex="1">
          <mxGeometry x="-520" y="320" width="100" height="60" as="geometry"/>
        </mxCell>
        <mxCell id="57tICekwnjl2I0n6BF8x-21" value="C4" style="shape=trapezoid;perimeter=trapezoidPerimeter;whiteSpace=wrap;html=1;direction=east;" parent="1" vertex="1">
          <mxGeometry x="-400" y="320" width="100" height="60" as="geometry"/>
        </mxCell>
        <mxCell id="57tICekwnjl2I0n6BF8x-22" value="C5" style="shape=trapezoid;perimeter=trapezoidPerimeter;whiteSpace=wrap;html=1;direction=east;" parent="1" vertex="1">
          <mxGeometry x="-280" y="320" width="100" height="60" as="geometry"/>
        </mxCell>
        <mxCell id="57tICekwnjl2I0n6BF8x-23" value="C6" style="shape=trapezoid;perimeter=trapezoidPerimeter;whiteSpace=wrap;html=1;direction=east;" parent="1" vertex="1">
          <mxGeometry x="-160" y="320" width="100" height="60" as="geometry"/>
        </mxCell>
        <mxCell id="57tICekwnjl2I0n6BF8x-24" value="A2" style="shape=trapezoid;perimeter=trapezoidPerimeter;whiteSpace=wrap;html=1;direction=east;" parent="1" vertex="1">
          <mxGeometry x="-640" y="130" width="100" height="60" as="geometry"/>
        </mxCell>
        <mxCell id="57tICekwnjl2I0n6BF8x-25" value="A3" style="shape=trapezoid;perimeter=trapezoidPerimeter;whiteSpace=wrap;html=1;direction=east;" parent="1" vertex="1">
          <mxGeometry x="-520" y="130" width="100" height="60" as="geometry"/>
        </mxCell>
        <mxCell id="57tICekwnjl2I0n6BF8x-26" value="A4" style="shape=trapezoid;perimeter=trapezoidPerimeter;whiteSpace=wrap;html=1;direction=east;" parent="1" vertex="1">
          <mxGeometry x="-400" y="130" width="100" height="60" as="geometry"/>
        </mxCell>
        <mxCell id="57tICekwnjl2I0n6BF8x-27" value="A5" style="shape=trapezoid;perimeter=trapezoidPerimeter;whiteSpace=wrap;html=1;direction=east;" parent="1" vertex="1">
          <mxGeometry x="-280" y="130" width="100" height="60" as="geometry"/>
        </mxCell>
        <mxCell id="57tICekwnjl2I0n6BF8x-28" value="A6" style="shape=trapezoid;perimeter=trapezoidPerimeter;whiteSpace=wrap;html=1;direction=east;" parent="1" vertex="1">
          <mxGeometry x="-160" y="130" width="100" height="60" as="geometry"/>
        </mxCell>
        <mxCell id="57tICekwnjl2I0n6BF8x-29" value="B2" style="shape=trapezoid;perimeter=trapezoidPerimeter;whiteSpace=wrap;html=1;direction=west;" parent="1" vertex="1">
          <mxGeometry x="-640" y="240" width="100" height="60" as="geometry"/>
        </mxCell>
        <mxCell id="57tICekwnjl2I0n6BF8x-30" value="B3" style="shape=trapezoid;perimeter=trapezoidPerimeter;whiteSpace=wrap;html=1;direction=west;" parent="1" vertex="1">
          <mxGeometry x="-520" y="240" width="100" height="60" as="geometry"/>
        </mxCell>
        <mxCell id="57tICekwnjl2I0n6BF8x-31" value="B4" style="shape=trapezoid;perimeter=trapezoidPerimeter;whiteSpace=wrap;html=1;direction=west;" parent="1" vertex="1">
          <mxGeometry x="-400" y="240" width="100" height="60" as="geometry"/>
        </mxCell>
        <mxCell id="57tICekwnjl2I0n6BF8x-32" value="B5" style="shape=trapezoid;perimeter=trapezoidPerimeter;whiteSpace=wrap;html=1;direction=west;" parent="1" vertex="1">
          <mxGeometry x="-280" y="240" width="100" height="60" as="geometry"/>
        </mxCell>
        <mxCell id="57tICekwnjl2I0n6BF8x-33" value="B6" style="shape=trapezoid;perimeter=trapezoidPerimeter;whiteSpace=wrap;html=1;direction=west;" parent="1" vertex="1">
          <mxGeometry x="-160" y="240" width="100" height="60" as="geometry"/>
        </mxCell>
        <mxCell id="57tICekwnjl2I0n6BF8x-34" value="C7" style="shape=trapezoid;perimeter=trapezoidPerimeter;whiteSpace=wrap;html=1;direction=east;" parent="1" vertex="1">
          <mxGeometry x="40" y="320" width="100" height="60" as="geometry"/>
        </mxCell>
        <mxCell id="57tICekwnjl2I0n6BF8x-35" value="C8" style="shape=trapezoid;perimeter=trapezoidPerimeter;whiteSpace=wrap;html=1;direction=east;" parent="1" vertex="1">
          <mxGeometry x="160" y="320" width="100" height="60" as="geometry"/>
        </mxCell>
        <mxCell id="57tICekwnjl2I0n6BF8x-36" value="C9" style="shape=trapezoid;perimeter=trapezoidPerimeter;whiteSpace=wrap;html=1;direction=east;" parent="1" vertex="1">
          <mxGeometry x="280" y="320" width="100" height="60" as="geometry"/>
        </mxCell>
        <mxCell id="57tICekwnjl2I0n6BF8x-37" value="C10" style="shape=trapezoid;perimeter=trapezoidPerimeter;whiteSpace=wrap;html=1;direction=east;" parent="1" vertex="1">
          <mxGeometry x="400" y="320" width="100" height="60" as="geometry"/>
        </mxCell>
        <mxCell id="57tICekwnjl2I0n6BF8x-38" value="C11" style="shape=trapezoid;perimeter=trapezoidPerimeter;whiteSpace=wrap;html=1;direction=east;" parent="1" vertex="1">
          <mxGeometry x="590" y="320" width="100" height="60" as="geometry"/>
        </mxCell>
        <mxCell id="57tICekwnjl2I0n6BF8x-39" value="A7" style="shape=trapezoid;perimeter=trapezoidPerimeter;whiteSpace=wrap;html=1;direction=east;" parent="1" vertex="1">
          <mxGeometry x="40" y="130" width="100" height="60" as="geometry"/>
        </mxCell>
        <mxCell id="57tICekwnjl2I0n6BF8x-40" value="A8" style="shape=trapezoid;perimeter=trapezoidPerimeter;whiteSpace=wrap;html=1;direction=east;" parent="1" vertex="1">
          <mxGeometry x="160" y="130" width="100" height="60" as="geometry"/>
        </mxCell>
        <mxCell id="57tICekwnjl2I0n6BF8x-41" value="A9" style="shape=trapezoid;perimeter=trapezoidPerimeter;whiteSpace=wrap;html=1;direction=east;" parent="1" vertex="1">
          <mxGeometry x="280" y="130" width="100" height="60" as="geometry"/>
        </mxCell>
        <mxCell id="57tICekwnjl2I0n6BF8x-42" value="A10" style="shape=trapezoid;perimeter=trapezoidPerimeter;whiteSpace=wrap;html=1;direction=east;" parent="1" vertex="1">
          <mxGeometry x="400" y="130" width="100" height="60" as="geometry"/>
        </mxCell>
        <mxCell id="57tICekwnjl2I0n6BF8x-43" value="A11" style="shape=trapezoid;perimeter=trapezoidPerimeter;whiteSpace=wrap;html=1;direction=west;" parent="1" vertex="1">
          <mxGeometry x="592.5" y="126" width="100" height="60" as="geometry"/>
        </mxCell>
        <mxCell id="57tICekwnjl2I0n6BF8x-44" value="B7" style="shape=trapezoid;perimeter=trapezoidPerimeter;whiteSpace=wrap;html=1;direction=west;" parent="1" vertex="1">
          <mxGeometry x="40" y="240" width="100" height="60" as="geometry"/>
        </mxCell>
        <mxCell id="57tICekwnjl2I0n6BF8x-45" value="B8" style="shape=trapezoid;perimeter=trapezoidPerimeter;whiteSpace=wrap;html=1;direction=west;" parent="1" vertex="1">
          <mxGeometry x="160" y="240" width="100" height="60" as="geometry"/>
        </mxCell>
        <mxCell id="57tICekwnjl2I0n6BF8x-46" value="B9" style="shape=trapezoid;perimeter=trapezoidPerimeter;whiteSpace=wrap;html=1;direction=west;" parent="1" vertex="1">
          <mxGeometry x="280" y="240" width="100" height="60" as="geometry"/>
        </mxCell>
        <mxCell id="57tICekwnjl2I0n6BF8x-47" value="B10" style="shape=trapezoid;perimeter=trapezoidPerimeter;whiteSpace=wrap;html=1;direction=west;" parent="1" vertex="1">
          <mxGeometry x="400" y="240" width="100" height="60" as="geometry"/>
        </mxCell>
        <mxCell id="57tICekwnjl2I0n6BF8x-48" value="B11" style="shape=trapezoid;perimeter=trapezoidPerimeter;whiteSpace=wrap;html=1;direction=west;" parent="1" vertex="1">
          <mxGeometry x="590" y="240" width="100" height="60" as="geometry"/>
        </mxCell>
        <mxCell id="57tICekwnjl2I0n6BF8x-49" value="C12" style="shape=trapezoid;perimeter=trapezoidPerimeter;whiteSpace=wrap;html=1;direction=east;" parent="1" vertex="1">
          <mxGeometry x="710" y="320" width="100" height="60" as="geometry"/>
        </mxCell>
        <mxCell id="57tICekwnjl2I0n6BF8x-51" value="B12" style="shape=trapezoid;perimeter=trapezoidPerimeter;whiteSpace=wrap;html=1;direction=west;" parent="1" vertex="1">
          <mxGeometry x="710" y="240" width="100" height="60" as="geometry"/>
        </mxCell>
        <mxCell id="57tICekwnjl2I0n6BF8x-52" value="C14" style="shape=trapezoid;perimeter=trapezoidPerimeter;whiteSpace=wrap;html=1;direction=east;" parent="1" vertex="1">
          <mxGeometry x="840" y="320" width="100" height="60" as="geometry"/>
        </mxCell>
        <mxCell id="57tICekwnjl2I0n6BF8x-53" value="B14" style="shape=trapezoid;perimeter=trapezoidPerimeter;whiteSpace=wrap;html=1;direction=west;" parent="1" vertex="1">
          <mxGeometry x="840" y="240" width="100" height="60" as="geometry"/>
        </mxCell>
        <mxCell id="57tICekwnjl2I0n6BF8x-56" value="" style="rounded=0;whiteSpace=wrap;html=1;" parent="1" vertex="1">
          <mxGeometry x="-955" y="210" width="150" height="10" as="geometry"/>
        </mxCell>
        <mxCell id="57tICekwnjl2I0n6BF8x-57" value="" style="rounded=0;whiteSpace=wrap;html=1;" parent="1" vertex="1">
          <mxGeometry x="-1040" y="245" width="240" height="10" as="geometry"/>
        </mxCell>
        <mxCell id="57tICekwnjl2I0n6BF8x-58" value="" style="rounded=0;whiteSpace=wrap;html=1;" parent="1" vertex="1">
          <mxGeometry x="-1040" y="390" width="240" height="10" as="geometry"/>
        </mxCell>
        <mxCell id="57tICekwnjl2I0n6BF8x-59" value="" style="rounded=0;whiteSpace=wrap;html=1;" parent="1" vertex="1">
          <mxGeometry x="-640" y="306" width="590" height="10" as="geometry"/>
        </mxCell>
        <mxCell id="57tICekwnjl2I0n6BF8x-60" value="" style="rounded=0;whiteSpace=wrap;html=1;" parent="1" vertex="1">
          <mxGeometry x="35" y="305" width="475" height="10" as="geometry"/>
        </mxCell>
        <mxCell id="57tICekwnjl2I0n6BF8x-61" value="" style="rounded=0;whiteSpace=wrap;html=1;" parent="1" vertex="1">
          <mxGeometry x="590" y="305" width="350" height="10" as="geometry"/>
        </mxCell>
        <mxCell id="57tICekwnjl2I0n6BF8x-62" value="" style="rounded=0;whiteSpace=wrap;html=1;" parent="1" vertex="1">
          <mxGeometry x="-668" y="500" width="110" height="10" as="geometry"/>
        </mxCell>
        <mxCell id="57tICekwnjl2I0n6BF8x-63" value="" style="rounded=0;whiteSpace=wrap;html=1;" parent="1" vertex="1">
          <mxGeometry x="-520" y="500" width="110" height="10" as="geometry"/>
        </mxCell>
        <mxCell id="57tICekwnjl2I0n6BF8x-64" value="" style="rounded=0;whiteSpace=wrap;html=1;" parent="1" vertex="1">
          <mxGeometry x="-290" y="500" width="110" height="10" as="geometry"/>
        </mxCell>
        <mxCell id="57tICekwnjl2I0n6BF8x-65" value="" style="rounded=0;whiteSpace=wrap;html=1;" parent="1" vertex="1">
          <mxGeometry x="-130" y="500" width="270" height="10" as="geometry"/>
        </mxCell>
        <mxCell id="57tICekwnjl2I0n6BF8x-67" value="" style="rounded=0;whiteSpace=wrap;html=1;" parent="1" vertex="1">
          <mxGeometry x="195" y="500" width="265" height="10" as="geometry"/>
        </mxCell>
        <mxCell id="57tICekwnjl2I0n6BF8x-68" value="" style="rounded=0;whiteSpace=wrap;html=1;" parent="1" vertex="1">
          <mxGeometry x="528.5" y="500" width="110" height="10" as="geometry"/>
        </mxCell>
        <mxCell id="57tICekwnjl2I0n6BF8x-69" value="" style="rounded=0;whiteSpace=wrap;html=1;" parent="1" vertex="1">
          <mxGeometry x="575" y="200" width="135" height="10" as="geometry"/>
        </mxCell>
        <mxCell id="57tICekwnjl2I0n6BF8x-70" value="" style="rounded=0;whiteSpace=wrap;html=1;" parent="1" vertex="1">
          <mxGeometry x="35" y="116" width="475" height="10" as="geometry"/>
        </mxCell>
        <mxCell id="57tICekwnjl2I0n6BF8x-71" value="" style="rounded=0;whiteSpace=wrap;html=1;" parent="1" vertex="1">
          <mxGeometry x="-640" y="116" width="591" height="10" as="geometry"/>
        </mxCell>
        <mxCell id="57tICekwnjl2I0n6BF8x-72" value="" style="rounded=0;whiteSpace=wrap;html=1;direction=south;" parent="1" vertex="1">
          <mxGeometry x="-805" y="120" width="10" height="100" as="geometry"/>
        </mxCell>
        <mxCell id="57tICekwnjl2I0n6BF8x-73" value="" style="rounded=0;whiteSpace=wrap;html=1;direction=south;" parent="1" vertex="1">
          <mxGeometry x="-800" y="245" width="10" height="100" as="geometry"/>
        </mxCell>
        <mxCell id="57tICekwnjl2I0n6BF8x-74" value="" style="rounded=0;whiteSpace=wrap;html=1;direction=south;" parent="1" vertex="1">
          <mxGeometry x="-800" y="390" width="10" height="100" as="geometry"/>
        </mxCell>
        <mxCell id="57tICekwnjl2I0n6BF8x-75" value="" style="rounded=0;whiteSpace=wrap;html=1;direction=south;" parent="1" vertex="1">
          <mxGeometry x="-678" y="500" width="10" height="90" as="geometry"/>
        </mxCell>
        <mxCell id="57tICekwnjl2I0n6BF8x-76" value="" style="rounded=0;whiteSpace=wrap;html=1;" parent="1" vertex="1">
          <mxGeometry x="-1035" y="590" width="1675" height="10" as="geometry"/>
        </mxCell>
        <mxCell id="57tICekwnjl2I0n6BF8x-77" value="" style="rounded=0;whiteSpace=wrap;html=1;direction=south;" parent="1" vertex="1">
          <mxGeometry x="565" y="110" width="10" height="100" as="geometry"/>
        </mxCell>
        <mxCell id="57tICekwnjl2I0n6BF8x-80" value="" style="rounded=0;whiteSpace=wrap;html=1;direction=south;" parent="1" vertex="1">
          <mxGeometry x="-410" y="500" width="10" height="90" as="geometry"/>
        </mxCell>
        <mxCell id="57tICekwnjl2I0n6BF8x-81" value="" style="rounded=0;whiteSpace=wrap;html=1;direction=south;" parent="1" vertex="1">
          <mxGeometry x="-300" y="500" width="10" height="90" as="geometry"/>
        </mxCell>
        <mxCell id="57tICekwnjl2I0n6BF8x-83" value="" style="rounded=0;whiteSpace=wrap;html=1;direction=south;" parent="1" vertex="1">
          <mxGeometry y="500" width="10" height="90" as="geometry"/>
        </mxCell>
        <mxCell id="57tICekwnjl2I0n6BF8x-84" value="" style="rounded=0;whiteSpace=wrap;html=1;direction=south;" parent="1" vertex="1">
          <mxGeometry x="325" y="500" width="10" height="90" as="geometry"/>
        </mxCell>
        <mxCell id="57tICekwnjl2I0n6BF8x-85" value="" style="rounded=0;whiteSpace=wrap;html=1;direction=south;" parent="1" vertex="1">
          <mxGeometry x="630" y="500" width="10" height="90" as="geometry"/>
        </mxCell>
      </root>
    </mxGraphModel>
  </diagram>
</mxfile>
